# xmcd
#
# Track frame offsets:
#	150
#	12299
#	19628
#	33278
#	49112
#	60512
#	72137
#	82937
#	92461
#	104311
#	117135
#	129294
#	141144
#	148428
#	162077
#	177933
#	189332
#	200985
#	211785
#	221309
#	233158
#	245977
#
# Disc length: 3439 seconds
#
# Revision: 0
# Processed by: cddbd v1.5.2PL0 Copyright (c) Steve Scherf et al.
# Submitted via: EZCDAudioConverter 7.0.0.1
#
DISCID=2d0d6d16
DTITLE=Uldis Punkstiņš - LIELĀ ĶEZA
DYEAR=2014
DGENRE=bērniem
TTITLE0=Vardulēns Vāks
TTITLE1=Osta
TTITLE2=Dzirnavas
TTITLE3=Bebra Kungs
TTITLE4=Akvaparks
TTITLE5=Lielā Ķeza
TTITLE6=Bēdas
TTITLE7=Tīrelis - Netīrelis
TTITLE8=Zilā Mēslu Bambāle
TTITLE9=Nāc Talkā
TTITLE10=Lietus
TTITLE11=Vardulēns Vāks (instr.)
TTITLE12=Osta (instr.)
TTITLE13=Dzirnavas (instr.)
TTITLE14=Bebra Kungs (instr.)
TTITLE15=Akvaparks (instr.)
TTITLE16=Lielā Ķeza (instr.)
TTITLE17=Bēdas (instr.)
TTITLE18=Tīrelis - Netīrelis (instr.)
TTITLE19=Zilā Mēslu Bambāle (instr.)
TTITLE20=Nāc Talkā (instr.)
TTITLE21=Lietus (instr.)
EXTD=
EXTT0=
EXTT1=
EXTT2=
EXTT3=
EXTT4=
EXTT5=
EXTT6=
EXTT7=
EXTT8=
EXTT9=
EXTT10=
EXTT11=
EXTT12=
EXTT13=
EXTT14=
EXTT15=
EXTT16=
EXTT17=
EXTT18=
EXTT19=
EXTT20=
EXTT21=
PLAYORDER=
